<svg id="visual" viewBox="0 0 900 600" width="900" height="600" xmlns="http://www.w3.org/2000/svg" xmlns:xlink="http://www.w3.org/1999/xlink" version="1.1"><path d="M728 600L791 600L791 574L719 574L719 548L773 548L773 522L809 522L809 496L737 496L737 470L764 470L764 443L728 443L728 417L647 417L647 391L791 391L791 365L683 365L683 339L800 339L800 313L818 313L818 287L728 287L728 261L782 261L782 235L719 235L719 209L782 209L782 183L719 183L719 157L800 157L800 130L755 130L755 104L755 104L755 78L683 78L683 52L674 52L674 26L773 26L773 0L900 0L900 26L900 26L900 52L900 52L900 78L900 78L900 104L900 104L900 130L900 130L900 157L900 157L900 183L900 183L900 209L900 209L900 235L900 235L900 261L900 261L900 287L900 287L900 313L900 313L900 339L900 339L900 365L900 365L900 391L900 391L900 417L900 417L900 443L900 443L900 470L900 470L900 496L900 496L900 522L900 522L900 548L900 548L900 574L900 574L900 600L900 600Z" fill="#fe9227"></path><path d="M620 600L683 600L683 574L629 574L629 548L611 548L611 522L719 522L719 496L539 496L539 470L674 470L674 443L611 443L611 417L584 417L584 391L701 391L701 365L521 365L521 339L656 339L656 313L647 313L647 287L584 287L584 261L674 261L674 235L638 235L638 209L620 209L620 183L530 183L530 157L728 157L728 130L593 130L593 104L656 104L656 78L503 78L503 52L530 52L530 26L692 26L692 0L774 0L774 26L675 26L675 52L684 52L684 78L756 78L756 104L756 104L756 130L801 130L801 157L720 157L720 183L783 183L783 209L720 209L720 235L783 235L783 261L729 261L729 287L819 287L819 313L801 313L801 339L684 339L684 365L792 365L792 391L648 391L648 417L729 417L729 443L765 443L765 470L738 470L738 496L810 496L810 522L774 522L774 548L720 548L720 574L792 574L792 600L729 600Z" fill="#ffa95e"></path><path d="M548 600L584 600L584 574L548 574L548 548L458 548L458 522L656 522L656 496L485 496L485 470L548 470L548 443L458 443L458 417L467 417L467 391L629 391L629 365L440 365L440 339L593 339L593 313L557 313L557 287L485 287L485 261L575 261L575 235L494 235L494 209L494 209L494 183L431 183L431 157L620 157L620 130L476 130L476 104L602 104L602 78L440 78L440 52L467 52L467 26L584 26L584 0L693 0L693 26L531 26L531 52L504 52L504 78L657 78L657 104L594 104L594 130L729 130L729 157L531 157L531 183L621 183L621 209L639 209L639 235L675 235L675 261L585 261L585 287L648 287L648 313L657 313L657 339L522 339L522 365L702 365L702 391L585 391L585 417L612 417L612 443L675 443L675 470L540 470L540 496L720 496L720 522L612 522L612 548L630 548L630 574L684 574L684 600L621 600Z" fill="#ffc08e"></path><path d="M368 600L251 600L251 574L359 574L359 548L188 548L188 522L233 522L233 496L170 496L170 470L251 470L251 443L134 443L134 417L278 417L278 391L206 391L206 365L152 365L152 339L395 339L395 313L305 313L305 287L314 287L314 261L323 261L323 235L359 235L359 209L260 209L260 183L224 183L224 157L440 157L440 130L332 130L332 104L314 104L314 78L224 78L224 52L341 52L341 26L170 26L170 0L585 0L585 26L468 26L468 52L441 52L441 78L603 78L603 104L477 104L477 130L621 130L621 157L432 157L432 183L495 183L495 209L495 209L495 235L576 235L576 261L486 261L486 287L558 287L558 313L594 313L594 339L441 339L441 365L630 365L630 391L468 391L468 417L459 417L459 443L549 443L549 470L486 470L486 496L657 496L657 522L459 522L459 548L549 548L549 574L585 574L585 600L549 600Z" fill="#fad7be"></path><path d="M0 600L0 600L0 574L0 574L0 548L0 548L0 522L0 522L0 496L0 496L0 470L0 470L0 443L0 443L0 417L0 417L0 391L0 391L0 365L0 365L0 339L0 339L0 313L0 313L0 287L0 287L0 261L0 261L0 235L0 235L0 209L0 209L0 183L0 183L0 157L0 157L0 130L0 130L0 104L0 104L0 78L0 78L0 52L0 52L0 26L0 26L0 0L171 0L171 26L342 26L342 52L225 52L225 78L315 78L315 104L333 104L333 130L441 130L441 157L225 157L225 183L261 183L261 209L360 209L360 235L324 235L324 261L315 261L315 287L306 287L306 313L396 313L396 339L153 339L153 365L207 365L207 391L279 391L279 417L135 417L135 443L252 443L252 470L171 470L171 496L234 496L234 522L189 522L189 548L360 548L360 574L252 574L252 600L369 600Z" fill="#eeeeee"></path></svg>