<svg id="visual" viewBox="0 0 900 600" width="900" height="600" xmlns="http://www.w3.org/2000/svg" xmlns:xlink="http://www.w3.org/1999/xlink" version="1.1"><path d="M0 576L13.7 572.5C27.3 569 54.7 562 82 559C109.3 556 136.7 557 163.8 557C191 557 218 556 245.2 557.8C272.3 559.7 299.7 564.3 327 568.7C354.3 573 381.7 577 409 578.2C436.3 579.3 463.7 577.7 491 576C518.3 574.3 545.7 572.7 573 569.5C600.3 566.3 627.7 561.7 654.8 560.8C682 560 709 563 736.2 567.3C763.3 571.7 790.7 577.3 818 580C845.3 582.7 872.7 582.3 886.3 582.2L900 582L900 601L886.3 601C872.7 601 845.3 601 818 601C790.7 601 763.3 601 736.2 601C709 601 682 601 654.8 601C627.7 601 600.3 601 573 601C545.7 601 518.3 601 491 601C463.7 601 436.3 601 409 601C381.7 601 354.3 601 327 601C299.7 601 272.3 601 245.2 601C218 601 191 601 163.8 601C136.7 601 109.3 601 82 601C54.7 601 27.3 601 13.7 601L0 601Z" fill="#f6ecf0" stroke-linecap="round" stroke-linejoin="miter"></path></svg>