<svg id="visual" viewBox="0 0 900 600" width="900" height="600" xmlns="http://www.w3.org/2000/svg" xmlns:xlink="http://www.w3.org/1999/xlink" version="1.1"><path d="M0 558L30 560.5C60 563 120 568 180 573C240 578 300 583 360 584.5C420 586 480 584 540 579.2C600 574.3 660 566.7 720 561.7C780 556.7 840 554.3 870 553.2L900 552L900 601L870 601C840 601 780 601 720 601C660 601 600 601 540 601C480 601 420 601 360 601C300 601 240 601 180 601C120 601 60 601 30 601L0 601Z" fill="#f6ecf0" stroke-linecap="round" stroke-linejoin="miter"></path></svg>