<svg id="visual" viewBox="0 0 900 600" width="900" height="600" xmlns="http://www.w3.org/2000/svg" xmlns:xlink="http://www.w3.org/1999/xlink" version="1.1"><path d="M0 552L18.8 557.3C37.7 562.7 75.3 573.3 112.8 578.8C150.3 584.3 187.7 584.7 225.2 579.2C262.7 573.7 300.3 562.3 337.8 558C375.3 553.7 412.7 556.3 450.2 559.7C487.7 563 525.3 567 562.8 568.8C600.3 570.7 637.7 570.3 675.2 569.3C712.7 568.3 750.3 566.7 787.8 564.8C825.3 563 862.7 561 881.3 560L900 559L900 601L881.3 601C862.7 601 825.3 601 787.8 601C750.3 601 712.7 601 675.2 601C637.7 601 600.3 601 562.8 601C525.3 601 487.7 601 450.2 601C412.7 601 375.3 601 337.8 601C300.3 601 262.7 601 225.2 601C187.7 601 150.3 601 112.8 601C75.3 601 37.7 601 18.8 601L0 601Z" fill="#ff7171" stroke-linecap="round" stroke-linejoin="miter"></path></svg>