<svg id="visual" viewBox="0 0 900 600" width="900" height="600" xmlns="http://www.w3.org/2000/svg" xmlns:xlink="http://www.w3.org/1999/xlink" version="1.1"><path d="M768 600L768.3 580C768.7 560 769.3 520 774.7 480C780 440 790 400 799.5 360C809 320 818 280 815.8 240C813.7 200 800.3 160 796.3 120C792.3 80 797.7 40 800.3 20L803 0L900 0L900 20C900 40 900 80 900 120C900 160 900 200 900 240C900 280 900 320 900 360C900 400 900 440 900 480C900 520 900 560 900 580L900 600Z" fill="#eeeeee" stroke-linecap="round" stroke-linejoin="miter"></path></svg>